<svg fill="#000000" xmlns="http://www.w3.org/2000/svg"  viewBox="0 0 64 64" width="64px" height="64px"><path d="M 42.037109 9.7753906 C 41.475199 9.7670072 40.912012 9.8029211 40.355469 9.8847656 C 38.006516 10.2302 35.750598 11.390238 34.175781 13.4375 C 32.600965 15.484762 31.738451 18.381285 32.001953 22.070312 A 1.0005207 1.0005207 0 1 0 33.998047 21.929688 C 33.761549 18.618714 34.524035 16.265238 35.761719 14.65625 C 36.999402 13.047262 38.743484 12.1448 40.644531 11.865234 C 44.446625 11.306103 48.719436 13.322371 50.050781 17.316406 A 1.0001 1.0001 0 0 0 51 18 L 55.130859 18 L 52.167969 22.445312 A 1.0001 1.0001 0 0 0 52 23 C 52 32.333333 49.679359 38.771548 46.199219 43.177734 C 42.719078 47.583921 38.041237 50.004192 33.146484 51.152344 C 28.251732 52.300496 23.153222 52.150999 19.003906 51.40625 C 16.1033 50.885628 13.991664 50.047587 12.466797 49.261719 C 14.749222 48.659049 19.593451 47.255493 24.806641 43.794922 C 27.977986 44.556995 30.303155 44.506669 31.910156 43.847656 C 33.582674 43.16178 34.475911 41.744311 34.423828 40.394531 C 34.371748 39.044752 33.433321 37.802852 32.025391 37.451172 C 30.61746 37.099492 28.912318 37.664752 27.291016 39.294922 C 26.431487 40.159142 25.292581 40.818096 24.242188 41.550781 C 17.648179 39.656909 14.096136 36.116199 12.195312 32.957031 C 10.909434 30.819899 10.469032 29.24176 10.246094 28.166016 C 11.063617 28.261996 11.970902 28.364017 14.025391 28.646484 C 14.066951 28.718714 14.098601 28.813855 14.140625 28.884766 C 16.249659 32.44376 18.835743 34.333269 20.683594 34.949219 C 21.702387 35.288817 22.741527 35.113529 23.515625 34.626953 C 24.289723 34.140377 24.827747 33.384723 25.082031 32.537109 C 25.336315 31.689495 25.301313 30.71562 24.828125 29.859375 C 24.354937 29.00313 23.451434 28.331608 22.242188 28.029297 C 20.470447 27.586362 17.796945 27.190814 15.361328 26.841797 C 13.970431 24.13327 12.980267 20.424218 12.984375 15.544922 C 15.622904 18.667091 19.04611 21.679941 23.183594 23.767578 C 28.211939 26.304715 33.957324 27.555967 39.287109 25.957031 A 1.0001 1.0001 0 1 0 38.712891 24.042969 C 34.042676 25.444033 28.799639 24.361785 24.083984 21.982422 C 19.36833 19.603059 15.218658 15.930933 12.824219 12.435547 A 1.0001 1.0001 0 0 0 11.001953 12.929688 C 10.592408 18.663313 11.517856 23.097248 12.972656 26.484375 C 11.091111 26.244874 9.1113281 26.005859 9.1113281 26.005859 A 1.0001 1.0001 0 0 0 8.0039062 27.083984 C 8.0039062 27.083984 8.280278 30.328319 10.482422 33.988281 C 12.452186 37.262029 16.154512 40.839949 22.320312 42.972656 C 16.501479 46.368175 9.7734375 48.025391 9.7734375 48.025391 A 1.0001 1.0001 0 0 0 9.2929688 49.707031 C 10.908307 51.32237 14.270409 52.588499 18.652344 53.375 C 23.034278 54.161501 28.373268 54.324504 33.603516 53.097656 C 38.833763 51.870808 43.968422 49.228579 47.769531 44.416016 C 51.523337 39.663344 53.918954 32.815313 53.978516 23.335938 L 57.832031 17.554688 A 1.0001 1.0001 0 0 0 57 16 L 51.560547 16 C 49.877524 12.068929 45.970484 9.8340746 42.037109 9.7753906 z M 16.912109 29.140625 C 18.664081 29.415615 20.583904 29.677226 21.757812 29.970703 C 22.548566 30.168392 22.895063 30.49687 23.078125 30.828125 C 23.261187 31.15938 23.288689 31.560505 23.167969 31.962891 C 23.047253 32.365277 22.772777 32.734623 22.453125 32.935547 C 22.133473 33.136471 21.797613 33.211183 21.316406 33.050781 C 20.365853 32.73393 18.577848 31.326046 16.912109 29.140625 z M 31.046875 39.353516 C 31.236309 39.339229 31.400374 39.355982 31.539062 39.390625 C 32.09382 39.529195 32.404661 39.973983 32.423828 40.470703 C 32.442998 40.967423 32.228639 41.556673 31.152344 41.998047 C 30.369054 42.319263 28.900291 42.349044 27.064453 42.113281 C 27.623484 41.652406 28.205048 41.211766 28.708984 40.705078 C 29.687133 39.721581 30.478574 39.396376 31.046875 39.353516 z"/></svg>